PathFileType	4	(X/Y/Z)	C:\Users\WrightLab\Desktop\Jo\P2_Trial38.trc
DataRate	CameraRate	NumFrames	NumMarkers	Units	OrigDataRate	OrigDataStartFrame	OrigNumFrames
100.00	100.00	      20	19	mm	100.00	687	      1099
Frame#	Time	Headset_Front			Headset_Back			Headset_Left			Headset_Right			Left_Shoulder			Right_Shoulder			Sternum			C7			Left Elbow			Right Elbow			Left Wrist			Right Wrist			Left ASIS			Right ASIS			S2			Left Knee			Right Knee			Left Ankle			Right Ankle			
		X1	Y1	Z1	X2	Y2	Z2	X3	Y3	Z3	X4	Y4	Z4	X5	Y5	Z5	X6	Y6	Z6	X7	Y7	Z7	X8	Y8	Z8	X9	Y9	Z9	X10	Y10	Z10	X11	Y11	Z11	X12	Y12	Z12	X13	Y13	Z13	X14	Y14	Z14	X15	Y15	Z15	X16	Y16	Z16	X17	Y17	Z17	X18	Y18	Z18	X19	Y19	Z19	

687	6.860	-290.86380	1260.29553	77.91979	-259.91776	1564.33899	130.26561	-346.91278	1428.87927	193.39566	-202.29285	1370.93774	23.16714	-248.56566	1424.18286	350.72678	-44.98157	1347.56299	113.89268	-171.73933	1254.04102	249.61646	-52.18372	1437.15576	277.76953	-245.88107	1121.60999	537.08368	103.29826	1050.92419	153.48050	-228.80342	897.31152	603.95343	104.59037	800.71539	165.78543	-167.95789	1027.24475	380.21249	-82.58207	999.97919	281.85025	71.18463	993.38464	510.20901	-190.66940	481.79565	538.77948	87.97254	547.40204	297.19595	-228.07930	131.52689	504.40527	52.75993	112.49844	304.61508	
688	6.870	-292.33453	1259.72083	79.15516	-261.85947	1564.41138	131.33424	-348.40356	1428.53381	195.01903	-204.31349	1370.82288	24.12482	-249.31522	1424.06470	351.99600	-47.01793	1347.54285	112.70312	-172.33478	1253.88293	250.26170	-52.66925	1436.96399	277.41641	-244.41051	1121.39307	538.19385	102.45033	1051.17212	152.78854	-227.06984	897.54102	604.72125	104.83562	802.20105	161.74599	-168.10657	1027.34644	381.30005	-83.05120	999.74475	282.03116	71.66801	993.57233	509.59735	-188.42365	481.87778	539.45276	87.77710	547.63324	296.03699	-227.58084	131.65881	504.09067	53.16823	112.59323	304.70209	
689	6.880	-294.14502	1259.37061	80.62953	-263.55133	1563.87244	131.96660	-349.28781	1428.43433	196.47285	-206.47360	1370.49121	24.69179	-249.00246	1423.77795	352.55359	-48.28927	1347.45508	112.15766	-173.01508	1253.74060	250.85754	-53.57721	1436.92859	277.14847	-242.99287	1121.52185	539.21490	101.86624	1050.86768	152.38434	-225.13193	897.32245	605.65497	102.36033	801.64856	161.33043	-167.90121	1027.20398	381.73187	-83.54008	998.61365	283.77151	72.79368	993.77490	509.02100	-187.16432	481.57208	539.92017	88.19945	547.71075	294.87320	-227.40714	131.87312	504.07785	52.90602	112.34378	303.56525	
690	6.890	-295.78174	1258.66541	81.72978	-265.01511	1563.35254	132.33849	-350.30002	1427.33362	197.51067	-208.24020	1369.83008	25.23685	-249.37617	1423.67395	353.75156	-49.89936	1346.94299	112.46917	-173.68295	1253.58801	251.53955	-54.14859	1436.75720	276.81659	-240.09135	1120.65698	540.20282	100.66999	1051.03186	151.30376	-223.47310	897.13800	606.48840	101.14140	802.06207	160.61787	-168.04245	1027.29285	382.49963	-83.81812	998.65497	284.24005	73.06544	993.78815	508.88290	-185.51521	481.42502	540.26758	88.32490	547.63403	294.19406	-227.30049	132.29758	503.97858	53.33934	112.74029	301.94684	
691	6.900	-296.98352	1258.17065	82.40905	-266.81274	1562.98718	133.29500	-351.65967	1427.29102	199.20583	-210.28279	1369.51526	26.03095	-249.54535	1423.39722	354.67130	-52.14005	1346.84558	111.81483	-174.28580	1253.34326	252.22708	-54.99973	1436.84729	276.55737	-240.47015	1121.20740	541.23169	99.58127	1051.15967	150.65475	-221.16490	897.29413	607.22345	99.15927	800.88623	161.74770	-168.07880	1027.14478	383.12967	-84.35722	998.47321	284.46738	73.95091	994.19116	508.16922	-184.82492	481.41528	540.51459	88.17369	547.66644	293.42300	-226.73065	132.94041	503.76480	53.47758	112.85314	301.81448	
692	6.910	-299.47537	1258.96240	84.14413	-268.50278	1562.36572	133.96851	-352.77188	1426.94348	200.23378	-212.66519	1369.30566	25.83969	-249.74149	1423.33667	355.52222	-53.66942	1347.09009	111.19150	-174.92081	1253.15588	252.84535	-55.58904	1436.35437	276.24011	-237.92393	1120.78943	542.29791	98.10582	1050.57825	149.56717	-218.72400	897.09680	607.50507	97.42125	801.35199	161.04306	-167.85806	1026.97729	383.59195	-84.76530	998.54102	284.20175	74.97612	994.42078	507.50436	-184.32202	482.00629	541.40662	87.82951	548.26129	291.95523	-226.44717	133.41173	503.80554	53.50862	112.92665	301.59460	
693	6.920	-300.92810	1258.40564	85.11684	-270.29453	1562.08545	134.48419	-354.10312	1426.36194	201.36949	-214.39038	1368.86304	26.60490	-249.81960	1423.40076	356.40192	-54.98618	1346.60193	111.69749	-175.59865	1252.93616	253.51978	-56.59488	1436.66748	275.86087	-236.18172	1120.80225	543.12946	96.70947	1050.88440	148.48465	-216.89297	897.16498	608.70233	95.81754	800.91083	159.83983	-167.91037	1027.00427	384.03683	-86.77509	998.08154	282.69333	75.81196	994.68372	507.06058	-183.38640	481.99329	541.75098	87.69957	547.84509	291.36844	-225.62212	133.75980	503.51514	53.53737	112.71111	301.71713	
694	6.930	-302.69843	1258.25842	86.54863	-271.71838	1561.73779	135.25954	-354.89087	1426.17493	202.43649	-216.35832	1368.08850	27.10180	-250.03513	1422.98987	357.01685	-57.10211	1346.48962	110.51742	-176.31093	1252.75586	254.04208	-57.30251	1436.27808	275.53430	-234.93219	1120.79089	544.03772	95.27005	1050.43457	147.49446	-214.34583	897.12683	608.69464	95.21978	801.37537	156.50432	-168.99104	1027.42932	384.69547	-87.06195	998.06262	282.63638	76.13544	995.00714	506.64917	-182.51505	482.23557	542.32867	87.66300	547.59979	290.61285	-225.09131	134.18968	503.38864	53.58611	112.44025	301.22134	
695	6.940	-304.20303	1257.42639	87.65007	-273.64618	1561.35461	135.96178	-356.49136	1425.35071	203.67714	-218.12875	1367.62012	27.81600	-250.03880	1422.80713	357.88541	-58.61181	1345.86963	110.85801	-177.07925	1252.63977	254.53479	-58.02053	1436.18042	275.00302	-234.10149	1121.07739	544.98199	93.48497	1049.94104	146.08290	-211.57889	896.81989	608.12189	93.30257	800.85815	154.81419	-167.49889	1026.88257	385.53375	-90.00188	998.02997	282.69342	76.37257	995.23163	506.19284	-181.21605	482.39450	542.67725	87.32482	547.73950	290.15842	-224.40054	134.76428	503.31671	53.97446	112.50375	301.13571	
696	6.950	-305.36108	1257.10852	87.98930	-275.13971	1560.93604	136.43808	-357.61267	1424.52795	204.67311	-220.01845	1367.36743	28.15967	-249.77150	1422.13501	358.60922	-60.47636	1346.02502	110.62221	-177.85635	1252.48352	255.03227	-58.50392	1436.00562	274.66452	-234.63870	1121.92200	545.67413	92.27411	1049.84290	145.27541	-209.66963	896.71075	608.87335	90.69691	799.88037	155.53532	-167.27090	1026.97595	386.11884	-87.72913	997.54755	283.32828	77.49947	995.85059	505.04739	-180.15154	482.85953	543.43671	87.06827	547.94672	289.18719	-224.07832	135.36142	503.15076	54.14907	112.31897	301.13855	
697	6.960	-307.08932	1257.80603	87.71383	-276.95627	1560.38892	137.09198	-358.70520	1424.52698	206.01785	-221.88109	1367.24609	28.04679	-250.15262	1422.00171	359.22366	-62.40942	1345.80225	109.34220	-178.65817	1252.24438	255.44598	-59.35963	1435.82202	273.95743	-233.57512	1122.02136	546.46765	90.12650	1049.55847	143.60844	-207.06386	897.07788	609.50885	88.47136	799.58771	154.47432	-166.91957	1026.79834	386.51303	-88.32224	997.26837	283.81329	78.18705	995.44183	504.50891	-179.62555	483.07596	543.85632	86.75739	547.99854	288.52155	-223.43056	136.14417	503.25830	54.15865	112.39095	300.98654	
698	6.970	-308.50015	1257.25708	89.19790	-278.33737	1560.09106	137.69780	-359.35165	1423.68530	206.71460	-223.82399	1366.81128	28.59826	-251.18785	1422.51099	359.73035	-63.70440	1345.22327	109.81574	-179.49266	1251.94666	255.88931	-60.56562	1435.75244	273.25284	-232.50131	1121.75134	547.15289	88.21109	1049.52722	142.32603	-204.84464	896.86218	610.12189	87.24751	800.14124	150.74638	-166.91357	1026.48718	387.33566	-88.72644	996.67438	284.02338	78.75338	995.47839	504.23950	-179.25761	483.62360	545.00354	86.28938	548.12476	288.18597	-222.06142	136.31354	502.94778	54.00855	111.61766	300.72528	
699	6.980	-309.95023	1255.44995	90.96931	-280.19745	1559.58142	138.21425	-360.53915	1423.30383	207.60426	-225.91553	1366.09009	29.82726	-251.73117	1422.25891	360.30798	-65.66530	1345.08350	109.61417	-180.37999	1251.73889	256.27505	-60.94139	1435.52063	272.93817	-231.44623	1122.04102	547.84863	86.40833	1048.57861	140.98810	-202.99113	896.62299	610.99200	85.04829	799.27460	148.93524	-166.11186	1026.08557	387.78134	-89.04535	996.48230	284.44330	79.28896	995.57227	503.63867	-178.53745	484.58630	545.47876	85.82926	547.92566	287.59241	-221.73335	137.31886	503.23141	53.92823	111.77956	300.32968	
700	6.990	-311.22479	1254.97412	91.46841	-281.49500	1558.91516	138.37697	-361.95435	1423.32898	208.76843	-227.56398	1365.78064	30.19123	-251.85481	1422.14050	360.73831	-67.37971	1345.26587	108.41492	-181.30377	1251.60120	256.62262	-61.48056	1435.42041	272.47726	-230.88118	1122.34412	548.67889	84.92010	1048.08105	139.89307	-200.75014	896.26495	611.75787	82.28043	798.10602	149.69203	-165.70375	1026.07849	388.33813	-89.57007	996.53510	284.63748	79.97566	996.18475	502.99295	-177.80716	485.22272	545.68024	85.71851	547.89923	287.58411	-221.04144	137.69098	503.10889	54.02293	111.53996	300.45456	
701	7.000	-312.83826	1254.50146	92.65742	-283.09085	1558.65479	139.08661	-362.60352	1422.21008	209.69661	-229.36447	1365.09937	30.38805	-252.11453	1422.29053	361.36389	-68.83327	1344.21936	108.83038	-182.11263	1251.42969	256.86682	-62.53804	1435.23022	271.99503	-230.33948	1122.45581	549.26111	83.27232	1048.08777	138.83975	-198.70323	896.39423	613.11511	80.30781	798.91797	146.35301	-165.37790	1025.91370	388.63315	-90.10667	996.41473	284.90213	80.26305	995.90692	501.76450	-177.35326	485.69244	545.94098	85.64433	547.86871	287.57446	-219.60454	138.26054	503.24295	52.86843	111.52225	300.40781	
702	7.010	-314.44424	1253.94592	93.46190	-284.56833	1558.12756	139.39085	-363.55066	1421.67554	210.58470	-231.32030	1364.78516	30.21470	-253.75160	1422.33472	359.86963	-70.70580	1343.72046	108.33236	-183.08406	1251.18323	257.14633	-63.24004	1434.99573	271.16968	-229.92734	1122.71130	549.99738	81.05582	1047.29529	137.22287	-196.66420	896.32794	614.06049	77.66321	798.29889	144.94269	-166.00581	1026.23718	389.62375	-90.46146	996.21356	285.11111	80.45375	995.81097	501.11877	-176.47206	485.83774	546.01636	85.58202	547.82898	287.56186	-218.88187	138.83594	503.26767	52.86184	111.46926	300.39026	
703	7.020	-315.92645	1253.40552	94.28924	-286.05365	1557.85461	139.90582	-364.83340	1421.38806	211.58115	-233.43867	1363.96265	31.06719	-253.07957	1422.07849	362.21692	-72.24619	1343.59167	107.21821	-184.05302	1250.87512	257.38406	-63.98865	1434.97156	271.01999	-229.67941	1123.01184	551.07739	79.52743	1046.51147	136.34233	-194.78885	895.99695	615.52600	75.62755	797.81158	143.67567	-166.78476	1026.35571	390.62238	-90.99796	995.88879	285.25119	80.84711	996.06885	500.87912	-175.63252	486.34247	546.57397	85.40507	547.62054	287.45560	-217.67674	139.28690	503.87854	52.67431	111.57903	300.32147	
704	7.030	-317.42896	1252.96729	95.28629	-287.64926	1557.46960	140.39273	-366.48392	1421.04919	212.64255	-235.45326	1363.70691	31.06506	-253.06844	1421.96545	362.38571	-73.45409	1343.05066	107.68279	-185.08086	1250.67419	257.70114	-64.73464	1434.71057	270.31433	-229.45036	1123.15173	552.16711	77.78069	1046.72253	134.87531	-193.12358	895.98682	616.66290	71.79065	797.04297	143.26797	-166.49034	1026.10010	390.95047	-91.77152	996.03168	285.88452	81.70623	996.41431	499.92688	-174.57234	486.60355	546.72717	85.34548	547.57214	287.44022	-216.80800	139.19540	504.25156	52.79216	111.37641	300.36188	
705	7.040	-318.87961	1252.47278	95.94434	-288.91473	1556.73572	140.33992	-367.31964	1420.75232	213.32976	-236.97771	1363.22949	31.62247	-253.62619	1421.82910	363.04062	-75.31466	1342.13513	107.64552	-185.93849	1250.49854	257.94498	-65.56557	1434.57080	269.72842	-227.50406	1122.52795	553.05408	75.65385	1045.57776	134.08290	-191.14740	896.26282	618.95721	70.35429	797.51740	140.48750	-166.72279	1026.16895	391.52042	-92.29669	995.78595	285.99039	82.62660	996.66412	499.12598	-173.55028	486.93451	546.94165	85.17083	547.57068	287.47974	-216.10367	139.27780	504.95767	52.70775	111.54369	300.11700	
706	7.050	-320.19220	1251.84595	96.49039	-290.55795	1556.22095	140.64870	-368.04065	1420.33081	213.75208	-238.65410	1362.52063	32.34589	-254.01906	1421.77441	363.42902	-77.04820	1342.37329	106.39415	-186.91649	1250.22437	258.09305	-66.40215	1434.38037	269.20389	-228.86745	1123.61389	554.30023	74.62210	1045.49048	132.94888	-189.32701	895.94794	620.47931	67.82178	796.77771	139.15327	-166.42284	1025.90454	391.82611	-92.82857	995.59827	286.07846	83.07325	996.85425	498.60965	-172.87360	487.21057	547.02649	85.13355	547.30084	287.27805	-215.01060	139.55843	505.52621	52.77676	111.21399	299.95782	
